<svg xmlns="http://www.w3.org/2000/svg" width="1607" height="653" viewBox="0 0 1607 653">
<g>
<path d="M 214.00 548.96 C149.52,542.00 100.01,496.65 90.36,435.71 C87.84,419.84 88.86,399.00 92.91,383.50 C96.60,369.38 105.17,351.14 113.13,340.50 C126.09,323.18 146.45,306.38 165.29,297.48 C190.61,285.52 208.57,282.53 264.00,281.03 C290.76,280.30 296.76,279.86 303.86,278.08 C321.65,273.61 333.63,267.34 344.85,256.62 C361.15,241.04 367.63,226.08 371.53,195.00 C375.78,161.16 385.18,140.48 404.75,121.94 C444.70,84.09 508.52,83.44 546.56,120.50 C585.69,158.63 582.21,217.32 538.88,249.97 C522.66,262.19 508.54,267.17 475.00,272.50 C447.99,276.79 441.47,278.17 431.50,281.71 C401.39,292.38 383.45,314.54 377.55,348.35 C376.72,353.15 375.36,371.12 374.53,388.29 C372.88,422.46 371.92,432.19 368.94,445.00 C362.84,471.20 352.99,489.83 335.93,507.46 C315.71,528.37 287.32,543.16 259.00,547.55 C246.76,549.44 224.85,550.13 214.00,548.96 ZM 675.00 324.00 L 675.00 199.00 L 698.50 199.00 L 722.00 199.00 L 722.00 248.56 L 722.00 298.12 L 725.39 297.81 C728.55,297.52 731.55,294.11 769.01,248.25 L 809.24 199.00 L 839.12 199.00 C855.55,199.00 869.00,199.18 869.00,199.39 C869.00,199.61 845.83,227.15 817.50,260.60 C789.17,294.05 766.00,321.68 766.00,322.01 C766.00,322.53 782.77,342.40 850.81,422.50 C861.55,435.15 871.01,446.29 871.83,447.25 C873.23,448.91 871.73,449.00 842.22,449.00 L 811.13 449.00 L 787.25 419.75 C774.12,403.66 755.40,380.71 745.64,368.75 C729.81,349.32 727.59,347.00 724.96,347.00 L 722.00 347.00 L 722.00 398.00 L 722.00 449.00 L 698.50 449.00 L 675.00 449.00 L 675.00 324.00 ZM 913.00 324.00 L 913.00 199.00 L 936.50 199.00 L 960.00 199.00 L 960.00 302.50 L 960.00 406.00 L 1017.50 406.00 L 1075.00 406.00 L 1075.00 427.50 L 1075.00 449.00 L 994.00 449.00 L 913.00 449.00 L 913.00 324.00 ZM 1121.00 324.00 L 1121.00 199.00 L 1144.50 199.00 L 1168.00 199.00 L 1168.00 324.00 L 1168.00 449.00 L 1144.50 449.00 L 1121.00 449.00 L 1121.00 324.00 ZM 1287.75 345.25 L 1287.50 241.50 L 1251.25 241.24 L 1215.00 240.98 L 1215.00 219.99 L 1215.00 199.00 L 1311.50 199.00 L 1408.00 199.00 L 1408.00 220.00 L 1408.00 241.00 L 1371.50 241.00 L 1335.00 241.00 L 1335.00 345.00 L 1335.00 449.00 L 1311.50 449.00 L 1288.01 449.00 L 1287.75 345.25 ZM 164.78 238.97 C149.64,236.42 135.97,224.70 130.98,209.99 C129.14,204.56 128.85,201.94 129.23,193.99 C129.61,185.90 130.15,183.47 132.86,177.79 C137.47,168.14 144.57,160.82 153.68,156.31 C160.24,153.07 162.30,152.55 170.11,152.18 C183.18,151.56 191.75,154.31 201.17,162.16 C217.61,175.86 221.62,199.62 210.65,218.33 C207.22,224.19 198.23,232.27 191.75,235.34 C183.09,239.42 174.41,240.59 164.78,238.97 ZM 269.64 191.54 C258.60,187.60 252.97,174.16 257.89,163.50 C262.64,153.22 275.19,149.01 285.80,154.14 C293.96,158.09 298.70,169.33 296.02,178.35 C294.34,184.03 287.63,190.35 281.70,191.84 C275.96,193.29 274.45,193.25 269.64,191.54 Z" fill="rgba(0,0,0,1)"/>
</g>
</svg>